<svg width="33" height="32" viewBox="0 0 33 32" fill="none" xmlns="http://www.w3.org/2000/svg">
<path d="M16.6667 2.66669C24.0307 2.66669 30 8.63602 30 16C30 23.364 24.0307 29.3334 16.6667 29.3334C14.3973 29.3367 12.1649 28.7583 10.1827 27.6534L9.77599 27.416L5.73332 28.6054C5.51333 28.6702 5.28042 28.6777 5.05668 28.6273C4.83294 28.5769 4.62578 28.4702 4.45484 28.3173C4.2839 28.1644 4.15485 27.9704 4.07992 27.7536C4.00498 27.5368 3.98665 27.3045 4.02666 27.0787L4.06132 26.9334L5.25066 22.8907C3.99327 20.8124 3.33009 18.4291 3.33332 16C3.33332 8.63602 9.30266 2.66669 16.6667 2.66669ZM16.6667 5.33335C14.7568 5.33301 12.8819 5.84543 11.2378 6.81711C9.5936 7.78878 8.24047 9.18408 7.31967 10.8573C6.39888 12.5305 5.94421 14.4202 6.00314 16.3291C6.06206 18.238 6.63242 20.0961 7.65466 21.7094C7.91866 22.1254 8.03199 22.6374 7.94266 23.1454L7.89066 23.3627L7.30266 25.364L9.30399 24.776C9.88132 24.6054 10.4813 24.7094 10.9573 25.012C12.3551 25.8971 13.9396 26.4449 15.5855 26.6121C17.2315 26.7793 18.8937 26.5613 20.4409 25.9755C21.9881 25.3896 23.3779 24.4519 24.5002 23.2364C25.6226 22.0209 26.4468 20.561 26.9078 18.9722C27.3688 17.3833 27.4539 15.7089 27.1563 14.0815C26.8588 12.4541 26.1867 10.9182 25.1933 9.59519C24.1999 8.27222 22.9124 7.19846 21.4325 6.4588C19.9527 5.71913 18.3211 5.33383 16.6667 5.33335ZM12.8027 9.57869C12.9503 9.51476 13.112 9.49037 13.2719 9.5079C13.4318 9.52543 13.5844 9.58429 13.7147 9.67869C14.3867 10.1694 14.92 10.828 15.3787 11.4707L15.8147 12.1027L16.0187 12.4027C16.1364 12.5748 16.1941 12.7809 16.183 12.9891C16.172 13.1973 16.0926 13.3961 15.9573 13.5547L15.8573 13.656L14.6253 14.5707C14.566 14.6136 14.5243 14.6766 14.5079 14.7479C14.4915 14.8193 14.5014 14.8941 14.536 14.9587C14.816 15.4654 15.3107 16.2214 15.8787 16.7894C16.448 17.3574 17.2387 17.8854 17.78 18.196C17.8973 18.2627 18.0387 18.2414 18.1347 18.1547L18.1853 18.0947L18.9867 16.8747C19.1338 16.6787 19.351 16.5473 19.5929 16.508C19.8348 16.4688 20.0824 16.5247 20.284 16.664L21.008 17.1694C21.728 17.6827 22.42 18.2347 22.968 18.9347C23.0699 19.066 23.1347 19.2222 23.1555 19.3871C23.1764 19.552 23.1526 19.7195 23.0867 19.872C22.5587 21.104 21.2213 22.1534 19.832 22.1027L19.62 22.0894L19.3653 22.0654C19.3173 22.0597 19.2693 22.0534 19.2213 22.0467L18.904 21.9934C17.672 21.7614 15.6973 21.0627 13.6507 19.0174C11.6053 16.9707 10.9067 14.996 10.6747 13.764L10.6213 13.4467L10.588 13.1694L10.5707 12.936C10.5685 12.9027 10.5668 12.8694 10.5653 12.836C10.5147 11.444 11.5693 10.1067 12.8027 9.57869Z" fill="#1E1E1E"/>
</svg>
