<svg width="33" height="32" viewBox="0 0 33 32" fill="none" xmlns="http://www.w3.org/2000/svg">
<path d="M27.3467 20.5067C25.7067 20.5067 24.12 20.24 22.64 19.76C22.4082 19.6814 22.1589 19.6697 21.9207 19.7263C21.6825 19.7829 21.4651 19.9055 21.2934 20.08L19.2 22.7067C15.4267 20.9067 11.8934 17.5067 10.0134 13.6L12.6134 11.3867C12.9734 11.0133 13.08 10.4933 12.9334 10.0267C12.44 8.54667 12.1867 6.96 12.1867 5.32C12.1867 4.6 11.5867 4 10.8667 4H6.25335C5.53335 4 4.66669 4.32 4.66669 5.32C4.66669 17.7067 14.9734 28 27.3467 28C28.2934 28 28.6667 27.16 28.6667 26.4267V21.8267C28.6667 21.1067 28.0667 20.5067 27.3467 20.5067Z" fill="#1E1E1E"/>
</svg>
