<svg width="315" height="72" viewBox="0 0 315 72" fill="none" xmlns="http://www.w3.org/2000/svg">
<g clip-path="url(#clip0_18_16)">
<path d="M45.8411 16.405C46.1431 16.0587 46.4504 15.7675 46.6715 15.6466C47.2861 15.2893 47.5018 14.4924 47.1513 13.8604C46.8009 13.2284 46.0137 13.0086 45.3936 13.3658C43.1236 14.6738 40.762 15.8004 38.3087 16.4874C31.2185 18.5758 26.2741 15.5916 22.1548 9.74956C19.7338 6.44659 17.5501 2.51159 13.6842 0.697981C11.0422 -0.560557 7.87719 -0.0109775 5.45626 1.50037C0.576645 4.64946 -0.593383 11.1125 0.247743 16.5094C0.285486 16.7512 0.646739 16.7017 0.61978 16.4599C0.323229 13.778 0.511943 11.0191 1.36925 8.49102C2.17802 5.96296 3.76861 3.6877 5.97387 2.39618C8.12522 1.17062 10.8804 0.736451 13.1288 1.90706C17.8844 4.51206 19.6584 10.2497 23.2817 14.1132C28.1289 19.7574 34.2918 20.2685 40.3414 18.4C33.5046 25.5665 26.8133 33.0408 21.4215 41.3889C17.1026 48.2916 13.4847 55.4416 9.35995 62.3883C8.35707 64.0591 6.33513 66.9279 4.54504 66.686C4.09212 66.5157 3.86027 65.8892 3.64999 65.3121C2.41526 62.0586 3.12159 57.9862 5.34303 55.0185C7.68309 51.9023 11.1231 49.7205 14.6332 48.0992C14.8596 48.0168 14.7518 47.6596 14.5145 47.731C13.5602 48.0333 12.5627 48.2806 11.6299 48.6708C6.79883 50.5339 2.0594 54.1062 0.770751 59.5085C-0.458588 63.8337 0.889371 72.006 6.99832 69.5439C10.3305 68.038 12.2014 64.7021 14.0239 61.7563C17.8737 55.8868 21.0656 49.4127 24.5919 43.4278C29.6333 34.9148 36.1628 27.1053 42.8379 19.8289C43.4687 19.1364 45.3127 17.081 45.8411 16.4105V16.405Z" fill="#6F432A"/>
<path d="M56.3986 12.7667C52.9694 6.44107 44.6929 6.42458 38.7188 8.3591C38.4923 8.42505 38.584 8.79877 38.8212 8.72732C42.3475 7.90295 46.084 7.69961 49.5564 8.78778C56.4364 10.9421 57.6387 19.2188 54.4576 25.0389C52.4626 28.9738 48.6452 30.9743 46.3806 34.8598C45.1566 36.8109 44.6121 39.1356 44.1376 41.3669C43.2264 45.5327 42.6333 49.77 41.3284 53.7599C39.8996 58.0521 37.9585 62.9874 33.8392 65.0758C33.9686 64.2184 34.2813 63.2237 34.3244 62.3553C34.3891 61.3661 34.3352 60.2065 34.1681 59.2227C33.4887 54.6282 30.0595 50.7757 26.0318 48.9456C25.8323 48.8467 25.6652 49.1324 25.8323 49.2698C29.6605 52.4299 32.2809 56.964 31.3589 62.0146C31.03 63.6304 30.0919 65.1802 30.5502 67.0378C30.8898 68.4667 32.4319 69.2635 33.8014 68.9118C34.5024 68.7744 35.0523 68.4831 35.6401 68.2413C38.7296 66.9443 41.1128 64.059 42.5362 61.2122C45.8684 54.7546 46.0786 47.2254 47.3673 40.4051C47.8741 36.7834 49.9176 34.1234 52.4518 31.4964C57.2991 26.869 59.8494 18.9495 56.3825 12.7557L56.3986 12.7667Z" fill="#6F432A"/>
</g>
<path d="M73.472 24V10.368H68.096V7.2H82.736V10.368H77.36V24H73.472ZM88.4039 13.968H96.4919V16.992H88.4039V13.968ZM88.6919 20.88H97.8359V24H84.8279V7.2H97.5239V10.32H88.6919V20.88ZM108.97 24.288C107.674 24.288 106.466 24.08 105.346 23.664C104.242 23.232 103.282 22.624 102.465 21.84C101.65 21.056 101.01 20.136 100.546 19.08C100.098 18.024 99.8735 16.864 99.8735 15.6C99.8735 14.336 100.098 13.176 100.546 12.12C101.01 11.064 101.65 10.144 102.465 9.36C103.298 8.576 104.266 7.976 105.37 7.56C106.474 7.128 107.682 6.912 108.994 6.912C110.45 6.912 111.762 7.168 112.93 7.68C114.114 8.176 115.106 8.912 115.906 9.888L113.41 12.192C112.834 11.536 112.194 11.048 111.49 10.728C110.786 10.392 110.018 10.224 109.186 10.224C108.402 10.224 107.682 10.352 107.026 10.608C106.37 10.864 105.802 11.232 105.322 11.712C104.842 12.192 104.466 12.76 104.194 13.416C103.938 14.072 103.81 14.8 103.81 15.6C103.81 16.4 103.938 17.128 104.194 17.784C104.466 18.44 104.842 19.008 105.322 19.488C105.802 19.968 106.37 20.336 107.026 20.592C107.682 20.848 108.402 20.976 109.186 20.976C110.018 20.976 110.786 20.816 111.49 20.496C112.194 20.16 112.834 19.656 113.41 18.984L115.906 21.288C115.106 22.264 114.114 23.008 112.93 23.52C111.762 24.032 110.442 24.288 108.97 24.288ZM130.051 7.2H133.939V24H130.051V7.2ZM122.419 24H118.531V7.2H122.419V24ZM130.339 17.112H122.131V13.824H130.339V17.112ZM150.231 24.288C148.887 24.288 147.599 24.112 146.367 23.76C145.135 23.392 144.143 22.92 143.391 22.344L144.711 19.416C145.431 19.928 146.279 20.352 147.255 20.688C148.247 21.008 149.247 21.168 150.255 21.168C151.023 21.168 151.639 21.096 152.103 20.952C152.583 20.792 152.935 20.576 153.159 20.304C153.383 20.032 153.495 19.72 153.495 19.368C153.495 18.92 153.319 18.568 152.967 18.312C152.615 18.04 152.151 17.824 151.575 17.664C150.999 17.488 150.359 17.328 149.655 17.184C148.967 17.024 148.271 16.832 147.567 16.608C146.879 16.384 146.247 16.096 145.671 15.744C145.095 15.392 144.623 14.928 144.255 14.352C143.903 13.776 143.727 13.04 143.727 12.144C143.727 11.184 143.983 10.312 144.495 9.528C145.023 8.728 145.807 8.096 146.847 7.632C147.903 7.152 149.223 6.912 150.807 6.912C151.863 6.912 152.903 7.04 153.927 7.296C154.951 7.536 155.855 7.904 156.639 8.4L155.439 11.352C154.655 10.904 153.871 10.576 153.087 10.368C152.303 10.144 151.535 10.032 150.783 10.032C150.031 10.032 149.415 10.12 148.935 10.296C148.455 10.472 148.111 10.704 147.903 10.992C147.695 11.264 147.591 11.584 147.591 11.952C147.591 12.384 147.767 12.736 148.119 13.008C148.471 13.264 148.935 13.472 149.511 13.632C150.087 13.792 150.719 13.952 151.407 14.112C152.111 14.272 152.807 14.456 153.495 14.664C154.199 14.872 154.839 15.152 155.415 15.504C155.991 15.856 156.455 16.32 156.807 16.896C157.175 17.472 157.359 18.2 157.359 19.08C157.359 20.024 157.095 20.888 156.567 21.672C156.039 22.456 155.247 23.088 154.191 23.568C153.151 24.048 151.831 24.288 150.231 24.288ZM160.015 24V7.2H163.231L170.383 19.056H168.679L175.711 7.2H178.903L178.951 24H175.303L175.279 12.792H175.951L170.335 22.224H168.583L162.847 12.792H163.663V24H160.015ZM182.937 24V7.2H186.825V24H182.937ZM190.812 24V7.2H194.7V20.832H203.124V24H190.812ZM208.873 13.968H216.961V16.992H208.873V13.968ZM209.161 20.88H218.305V24H205.297V7.2H217.993V10.32H209.161V20.88ZM226.918 24.288C225.574 24.288 224.286 24.112 223.054 23.76C221.822 23.392 220.83 22.92 220.078 22.344L221.398 19.416C222.118 19.928 222.966 20.352 223.942 20.688C224.934 21.008 225.934 21.168 226.942 21.168C227.71 21.168 228.326 21.096 228.79 20.952C229.27 20.792 229.622 20.576 229.846 20.304C230.07 20.032 230.182 19.72 230.182 19.368C230.182 18.92 230.006 18.568 229.654 18.312C229.302 18.04 228.838 17.824 228.262 17.664C227.686 17.488 227.046 17.328 226.342 17.184C225.654 17.024 224.958 16.832 224.254 16.608C223.566 16.384 222.934 16.096 222.358 15.744C221.782 15.392 221.31 14.928 220.942 14.352C220.59 13.776 220.414 13.04 220.414 12.144C220.414 11.184 220.67 10.312 221.182 9.528C221.71 8.728 222.494 8.096 223.534 7.632C224.59 7.152 225.91 6.912 227.494 6.912C228.55 6.912 229.59 7.04 230.614 7.296C231.638 7.536 232.542 7.904 233.326 8.4L232.126 11.352C231.342 10.904 230.558 10.576 229.774 10.368C228.99 10.144 228.222 10.032 227.47 10.032C226.718 10.032 226.102 10.12 225.622 10.296C225.142 10.472 224.798 10.704 224.59 10.992C224.382 11.264 224.278 11.584 224.278 11.952C224.278 12.384 224.454 12.736 224.806 13.008C225.158 13.264 225.622 13.472 226.198 13.632C226.774 13.792 227.406 13.952 228.094 14.112C228.798 14.272 229.494 14.456 230.182 14.664C230.886 14.872 231.526 15.152 232.102 15.504C232.678 15.856 233.142 16.32 233.494 16.896C233.862 17.472 234.046 18.2 234.046 19.08C234.046 20.024 233.782 20.888 233.254 21.672C232.726 22.456 231.934 23.088 230.878 23.568C229.838 24.048 228.518 24.288 226.918 24.288ZM76.307 61L70.561 53.967L70.821 52.134L76.32 58.881L76.307 61ZM68.403 61V60.311H69.638V52.823H68.429V52.134H70.821L70.561 53.967V60.311H71.9V61H68.403ZM76.307 61L76.242 58.881H76.32V52.823H75.007V52.134H78.465V52.823H77.256V61H76.307ZM82.9801 61.156C82.2781 61.156 81.6497 61.0217 81.0951 60.753C80.5491 60.4757 80.1157 60.077 79.7951 59.557C79.4831 59.0283 79.3271 58.3913 79.3271 57.646C79.3271 56.9007 79.4831 56.268 79.7951 55.748C80.1157 55.2193 80.5491 54.8207 81.0951 54.552C81.6497 54.2747 82.2781 54.136 82.9801 54.136C83.6821 54.136 84.3061 54.2747 84.8521 54.552C85.4067 54.8207 85.8401 55.2193 86.1521 55.748C86.4727 56.268 86.6331 56.9007 86.6331 57.646C86.6331 58.3913 86.4727 59.0283 86.1521 59.557C85.8401 60.077 85.4067 60.4757 84.8521 60.753C84.3061 61.0217 83.6821 61.156 82.9801 61.156ZM82.9801 60.337C83.4221 60.337 83.8034 60.2287 84.1241 60.012C84.4534 59.7953 84.7091 59.4833 84.8911 59.076C85.0731 58.6687 85.1641 58.179 85.1641 57.607C85.1641 57.0523 85.0731 56.58 84.8911 56.19C84.7091 55.7913 84.4534 55.488 84.1241 55.28C83.8034 55.0633 83.4221 54.955 82.9801 54.955C82.5467 54.955 82.1654 55.0633 81.8361 55.28C81.5067 55.488 81.2511 55.7957 81.0691 56.203C80.8871 56.6017 80.7961 57.0827 80.7961 57.646C80.7961 58.218 80.8871 58.7033 81.0691 59.102C81.2511 59.5007 81.5067 59.8083 81.8361 60.025C82.1654 60.233 82.5467 60.337 82.9801 60.337ZM87.8299 61V60.311H88.9739V54.994H87.9339V54.305H90.1569V56.541L90.3129 56.515V60.311H91.8469V61H87.8299ZM89.8579 56.931C89.8665 56.2723 89.9792 55.7393 90.1959 55.332C90.4212 54.916 90.7202 54.6127 91.0929 54.422C91.4742 54.2227 91.9032 54.123 92.3799 54.123C92.8912 54.1143 93.3029 54.2357 93.6149 54.487C93.9355 54.7383 94.0959 55.085 94.0959 55.527C94.0959 55.8043 94.0135 56.0297 93.8489 56.203C93.6929 56.3763 93.4849 56.463 93.2249 56.463C92.9995 56.463 92.8175 56.398 92.6789 56.268C92.5402 56.138 92.4709 55.9777 92.4709 55.787C92.4709 55.5443 92.5532 55.3623 92.7179 55.241C92.8912 55.1197 93.1382 55.0677 93.4589 55.085L93.3419 55.553C93.3245 55.3017 93.2119 55.1067 93.0039 54.968C92.8045 54.8293 92.5359 54.7643 92.1979 54.773C91.8512 54.773 91.5349 54.8553 91.2489 55.02C90.9629 55.176 90.7332 55.4143 90.5599 55.735C90.3952 56.0557 90.3129 56.4543 90.3129 56.931H89.8579ZM98.9096 61.143C98.121 61.143 97.5403 60.9047 97.1676 60.428C96.795 59.9427 96.626 59.2797 96.6606 58.439L96.7646 55.111H94.9186V54.357H95.5166C95.9153 54.357 96.2273 54.3093 96.4526 54.214C96.6866 54.1187 96.8513 53.967 96.9466 53.759C97.0506 53.551 97.1026 53.2823 97.1026 52.953V52.524H97.9996V58.738C97.9996 59.1627 98.095 59.4963 98.2856 59.739C98.4763 59.9817 98.7623 60.103 99.1436 60.103C99.5336 60.103 99.8196 59.986 100.002 59.752C100.184 59.5093 100.275 59.1713 100.275 58.738V57.438H101.159V58.725C101.159 59.479 100.972 60.0727 100.6 60.506C100.236 60.9307 99.6723 61.143 98.9096 61.143ZM97.9996 55.111V54.305H101.354V55.111H97.9996ZM102.326 61V60.311H103.444V52.329H102.43V51.64H104.783V60.311H105.745V61H102.326ZM107.11 61V60.311H108.072V56.528C108.072 56.0513 107.942 55.7047 107.682 55.488C107.422 55.2627 107.071 55.15 106.629 55.15C106.308 55.15 106.005 55.2237 105.719 55.371C105.441 55.5183 105.216 55.748 105.043 56.06C104.869 56.372 104.783 56.7837 104.783 57.295L104.549 57.308C104.549 56.606 104.644 56.0253 104.835 55.566C105.034 55.1067 105.324 54.7687 105.706 54.552C106.096 54.3267 106.577 54.214 107.149 54.214C107.816 54.214 108.358 54.3917 108.774 54.747C109.19 55.0937 109.398 55.6743 109.398 56.489V60.311H110.373V61H107.11ZM114.775 61.156C114.099 61.156 113.51 61.0217 113.007 60.753C112.504 60.4843 112.11 60.09 111.824 59.57C111.547 59.0413 111.408 58.4 111.408 57.646C111.408 56.892 111.547 56.255 111.824 55.735C112.11 55.215 112.5 54.8207 112.994 54.552C113.497 54.2747 114.077 54.136 114.736 54.136L114.775 54.903C114.35 54.903 113.982 55.0027 113.67 55.202C113.367 55.4013 113.133 55.7003 112.968 56.099C112.803 56.489 112.721 56.9787 112.721 57.568C112.721 58.3567 112.92 58.985 113.319 59.453C113.726 59.9123 114.277 60.142 114.97 60.142C115.395 60.142 115.741 60.0727 116.01 59.934C116.279 59.7953 116.487 59.6263 116.634 59.427C116.79 59.219 116.903 59.0153 116.972 58.816H117.856C117.821 59.0847 117.735 59.3577 117.596 59.635C117.457 59.9123 117.262 60.168 117.011 60.402C116.768 60.6273 116.461 60.8093 116.088 60.948C115.724 61.0867 115.286 61.156 114.775 61.156ZM112.032 57.62V56.892H116.647L117.96 57.243V57.62H112.032ZM116.647 56.892C116.638 56.528 116.56 56.1943 116.413 55.891C116.274 55.5877 116.066 55.3493 115.789 55.176C115.52 54.994 115.182 54.903 114.775 54.903L114.736 54.136C115.438 54.136 116.027 54.266 116.504 54.526C116.989 54.786 117.353 55.15 117.596 55.618C117.839 56.086 117.96 56.6277 117.96 57.243L116.647 56.892ZM120.773 56.554C120.539 56.554 120.327 56.489 120.136 56.359C119.954 56.2203 119.863 56.0037 119.863 55.709C119.863 55.371 119.998 55.0893 120.266 54.864C120.544 54.6387 120.903 54.4697 121.345 54.357C121.787 54.2357 122.255 54.175 122.749 54.175C123.547 54.175 124.166 54.3353 124.608 54.656C125.05 54.9767 125.267 55.462 125.258 56.112L123.997 55.917C123.997 55.579 123.867 55.319 123.607 55.137C123.356 54.955 122.979 54.864 122.476 54.864C122.173 54.864 121.883 54.8987 121.605 54.968C121.328 55.0373 121.098 55.15 120.916 55.306C120.743 55.4533 120.648 55.6527 120.63 55.904L120.617 55.28C120.895 55.2887 121.116 55.345 121.28 55.449C121.445 55.553 121.523 55.7133 121.514 55.93C121.506 56.1207 121.436 56.2723 121.306 56.385C121.176 56.4977 120.999 56.554 120.773 56.554ZM125.856 61.13C125.302 61.13 124.877 60.9783 124.582 60.675C124.288 60.363 124.14 59.9253 124.14 59.362V58.946H123.997V57.035H123.919L123.997 56.45V55.917L125.258 56.112V59.466C125.258 59.7 125.315 59.895 125.427 60.051C125.549 60.1983 125.726 60.272 125.96 60.272C126.186 60.272 126.355 60.1983 126.467 60.051C126.589 59.895 126.649 59.7 126.649 59.466V57.568H127.533V59.375C127.533 59.9297 127.39 60.363 127.104 60.675C126.818 60.9783 126.402 61.13 125.856 61.13ZM121.631 61.13C120.973 61.13 120.431 60.974 120.006 60.662C119.59 60.3413 119.382 59.8993 119.382 59.336C119.382 58.9287 119.469 58.5993 119.642 58.348C119.824 58.088 120.071 57.8843 120.383 57.737C120.695 57.581 121.055 57.464 121.462 57.386L122.567 57.152C122.836 57.1 123.079 57.0263 123.295 56.931C123.512 56.8357 123.681 56.7057 123.802 56.541C123.932 56.3763 123.997 56.1683 123.997 55.917L124.036 57.035H123.997C123.911 57.2257 123.759 57.3817 123.542 57.503C123.334 57.6243 123.07 57.7197 122.749 57.789L122.177 57.906C121.917 57.9667 121.679 58.0447 121.462 58.14C121.246 58.2267 121.072 58.3437 120.942 58.491C120.812 58.6383 120.747 58.8377 120.747 59.089C120.747 59.4357 120.873 59.7 121.124 59.882C121.376 60.064 121.714 60.155 122.138 60.155C122.468 60.155 122.771 60.0857 123.048 59.947C123.334 59.8083 123.564 59.583 123.737 59.271C123.911 58.9503 123.997 58.53 123.997 58.01L124.374 58.036C124.374 58.7813 124.253 59.3837 124.01 59.843C123.768 60.2937 123.438 60.623 123.022 60.831C122.606 61.0303 122.143 61.13 121.631 61.13ZM132.266 61.117C131.79 61.117 131.352 61.0433 130.953 60.896C130.563 60.74 130.234 60.4973 129.965 60.168C129.697 59.8387 129.519 59.4053 129.432 58.868H129.731C129.905 59.2407 130.117 59.5353 130.368 59.752C130.62 59.96 130.884 60.1073 131.161 60.194C131.447 60.2807 131.729 60.324 132.006 60.324C132.44 60.324 132.778 60.233 133.02 60.051C133.263 59.869 133.384 59.6177 133.384 59.297C133.384 59.0717 133.319 58.894 133.189 58.764C133.068 58.6253 132.903 58.517 132.695 58.439C132.496 58.361 132.271 58.3003 132.019 58.257L131.083 58.101C130.624 58.0143 130.217 57.893 129.861 57.737C129.515 57.581 129.242 57.3687 129.042 57.1C128.852 56.8227 128.756 56.4717 128.756 56.047C128.756 55.4317 128.964 54.968 129.38 54.656C129.796 54.3353 130.334 54.175 130.992 54.175C131.443 54.175 131.859 54.2487 132.24 54.396C132.622 54.5433 132.942 54.7773 133.202 55.098C133.462 55.41 133.627 55.826 133.696 56.346H133.397C133.25 55.9907 133.051 55.7133 132.799 55.514C132.557 55.306 132.297 55.163 132.019 55.085C131.751 54.9983 131.495 54.955 131.252 54.955C130.862 54.955 130.55 55.0417 130.316 55.215C130.082 55.3797 129.965 55.6137 129.965 55.917C129.965 56.1337 130.017 56.307 130.121 56.437C130.225 56.567 130.377 56.671 130.576 56.749C130.784 56.8183 131.031 56.879 131.317 56.931L132.24 57.1C132.656 57.1693 133.042 57.282 133.397 57.438C133.761 57.5853 134.056 57.7977 134.281 58.075C134.507 58.3437 134.619 58.699 134.619 59.141C134.619 59.7823 134.403 60.272 133.969 60.61C133.545 60.948 132.977 61.117 132.266 61.117ZM128.847 61V58.868H129.432L129.718 59.323V61H128.847ZM133.696 56.346L133.423 55.904V54.292H134.294V56.346H133.696ZM139.636 61.143C138.848 61.143 138.267 60.9047 137.894 60.428C137.522 59.9427 137.353 59.2797 137.387 58.439L137.491 55.111H135.645V54.357H136.243C136.642 54.357 136.954 54.3093 137.179 54.214C137.413 54.1187 137.578 53.967 137.673 53.759C137.777 53.551 137.829 53.2823 137.829 52.953V52.524H138.726V58.738C138.726 59.1627 138.822 59.4963 139.012 59.739C139.203 59.9817 139.489 60.103 139.87 60.103C140.26 60.103 140.546 59.986 140.728 59.752C140.91 59.5093 141.001 59.1713 141.001 58.738V57.438H141.885V58.725C141.885 59.479 141.699 60.0727 141.326 60.506C140.962 60.9307 140.399 61.143 139.636 61.143ZM138.726 55.111V54.305H142.08V55.111H138.726ZM149.346 61V60.194H151.101C151.803 60.194 152.419 60.0467 152.947 59.752C153.485 59.4573 153.901 59.037 154.195 58.491C154.499 57.945 154.65 57.3037 154.65 56.567C154.65 55.8217 154.499 55.1803 154.195 54.643C153.901 54.097 153.485 53.6767 152.947 53.382C152.419 53.0787 151.803 52.927 151.101 52.927H149.346V52.134H151.231C152.211 52.134 153.064 52.3073 153.792 52.654C154.529 53.0007 155.101 53.5033 155.508 54.162C155.916 54.8207 156.119 55.6223 156.119 56.567C156.119 57.503 155.916 58.3047 155.508 58.972C155.101 59.6307 154.529 60.1333 153.792 60.48C153.064 60.8267 152.211 61 151.231 61H149.346ZM146.72 61V60.311H147.955V52.823H146.746V52.134H149.346V61H146.72ZM160.935 61.156C160.259 61.156 159.67 61.0217 159.167 60.753C158.665 60.4843 158.27 60.09 157.984 59.57C157.707 59.0413 157.568 58.4 157.568 57.646C157.568 56.892 157.707 56.255 157.984 55.735C158.27 55.215 158.66 54.8207 159.154 54.552C159.657 54.2747 160.238 54.136 160.896 54.136L160.935 54.903C160.511 54.903 160.142 55.0027 159.83 55.202C159.527 55.4013 159.293 55.7003 159.128 56.099C158.964 56.489 158.881 56.9787 158.881 57.568C158.881 58.3567 159.081 58.985 159.479 59.453C159.887 59.9123 160.437 60.142 161.13 60.142C161.555 60.142 161.902 60.0727 162.17 59.934C162.439 59.7953 162.647 59.6263 162.794 59.427C162.95 59.219 163.063 59.0153 163.132 58.816H164.016C163.982 59.0847 163.895 59.3577 163.756 59.635C163.618 59.9123 163.423 60.168 163.171 60.402C162.929 60.6273 162.621 60.8093 162.248 60.948C161.884 61.0867 161.447 61.156 160.935 61.156ZM158.192 57.62V56.892H162.807L164.12 57.243V57.62H158.192ZM162.807 56.892C162.799 56.528 162.721 56.1943 162.573 55.891C162.435 55.5877 162.227 55.3493 161.949 55.176C161.681 54.994 161.343 54.903 160.935 54.903L160.896 54.136C161.598 54.136 162.188 54.266 162.664 54.526C163.15 54.786 163.514 55.15 163.756 55.618C163.999 56.086 164.12 56.6277 164.12 57.243L162.807 56.892ZM165.295 61V60.311H166.413V52.329H165.399V51.64H167.752V60.311H168.766V61H165.295ZM169.662 61V60.311H170.78V52.329H169.766V51.64H172.119V60.311H173.081V61H169.662ZM174.446 61V60.311H175.408V56.528C175.408 56.0513 175.278 55.7047 175.018 55.488C174.758 55.2627 174.407 55.15 173.965 55.15C173.644 55.15 173.341 55.2237 173.055 55.371C172.777 55.5183 172.552 55.748 172.379 56.06C172.205 56.372 172.119 56.7837 172.119 57.295L171.885 57.308C171.885 56.606 171.98 56.0253 172.171 55.566C172.37 55.1067 172.66 54.7687 173.042 54.552C173.432 54.3267 173.913 54.214 174.485 54.214C175.152 54.214 175.694 54.3917 176.11 54.747C176.526 55.0937 176.734 55.6743 176.734 56.489V60.311H177.709V61H174.446ZM178.627 61V60.311H179.771V54.994H178.731V54.305H181.11V60.311H182.124V61H178.627ZM180.369 53.408C180.1 53.408 179.879 53.33 179.706 53.174C179.541 53.018 179.459 52.8143 179.459 52.563C179.459 52.3117 179.541 52.1123 179.706 51.965C179.879 51.8177 180.1 51.744 180.369 51.744C180.637 51.744 180.854 51.8177 181.019 51.965C181.183 52.1037 181.266 52.303 181.266 52.563C181.266 52.8143 181.183 53.018 181.019 53.174C180.854 53.33 180.637 53.408 180.369 53.408Z" fill="#6F432A"/>
<path d="M71.495 44V43.07H73.52C74.33 43.07 75.04 42.9 75.65 42.56C76.27 42.22 76.75 41.735 77.09 41.105C77.44 40.475 77.615 39.735 77.615 38.885C77.615 38.025 77.44 37.285 77.09 36.665C76.75 36.035 76.27 35.55 75.65 35.21C75.04 34.86 74.33 34.685 73.52 34.685H71.495V33.77H73.67C74.8 33.77 75.785 33.97 76.625 34.37C77.475 34.77 78.135 35.35 78.605 36.11C79.075 36.87 79.31 37.795 79.31 38.885C79.31 39.965 79.075 40.89 78.605 41.66C78.135 42.42 77.475 43 76.625 43.4C75.785 43.8 74.8 44 73.67 44H71.495ZM68.465 44V43.205H69.89V34.565H68.495V33.77H71.495V44H68.465ZM84.8668 44.18C84.0868 44.18 83.4068 44.025 82.8268 43.715C82.2468 43.405 81.7918 42.95 81.4618 42.35C81.1418 41.74 80.9818 41 80.9818 40.13C80.9818 39.26 81.1418 38.525 81.4618 37.925C81.7918 37.325 82.2418 36.87 82.8118 36.56C83.3918 36.24 84.0618 36.08 84.8218 36.08L84.8668 36.965C84.3768 36.965 83.9518 37.08 83.5918 37.31C83.2418 37.54 82.9718 37.885 82.7818 38.345C82.5918 38.795 82.4968 39.36 82.4968 40.04C82.4968 40.95 82.7268 41.675 83.1868 42.215C83.6568 42.745 84.2918 43.01 85.0918 43.01C85.5818 43.01 85.9818 42.93 86.2918 42.77C86.6018 42.61 86.8418 42.415 87.0118 42.185C87.1918 41.945 87.3218 41.71 87.4018 41.48H88.4218C88.3818 41.79 88.2818 42.105 88.1218 42.425C87.9618 42.745 87.7368 43.04 87.4468 43.31C87.1668 43.57 86.8118 43.78 86.3818 43.94C85.9618 44.1 85.4568 44.18 84.8668 44.18ZM81.7018 40.1V39.26H87.0268L88.5418 39.665V40.1H81.7018ZM87.0268 39.26C87.0168 38.84 86.9268 38.455 86.7568 38.105C86.5968 37.755 86.3568 37.48 86.0368 37.28C85.7268 37.07 85.3368 36.965 84.8668 36.965L84.8218 36.08C85.6318 36.08 86.3118 36.23 86.8618 36.53C87.4218 36.83 87.8418 37.25 88.1218 37.79C88.4018 38.33 88.5418 38.955 88.5418 39.665L87.0268 39.26ZM95.596 44V43.205H96.706V38.825C96.706 38.275 96.551 37.875 96.241 37.625C95.941 37.365 95.536 37.235 95.026 37.235C94.656 37.235 94.311 37.32 93.991 37.49C93.671 37.66 93.411 37.93 93.211 38.3C93.011 38.66 92.911 39.135 92.911 39.725H92.536C92.536 38.915 92.646 38.245 92.866 37.715C93.096 37.185 93.436 36.795 93.886 36.545C94.346 36.285 94.911 36.155 95.581 36.155C96.361 36.155 96.996 36.36 97.486 36.77C97.986 37.18 98.236 37.85 98.236 38.78V43.205H99.361V44H95.596ZM90.031 44V43.205H91.351V37.07H90.151V36.275H92.731V39.02L92.911 38.99V43.205H94.021V44H90.031ZM104.383 44.165C103.473 44.165 102.803 43.89 102.373 43.34C101.943 42.78 101.748 42.015 101.788 41.045L101.908 37.205H99.7777V36.335H100.468C100.928 36.335 101.288 36.28 101.548 36.17C101.818 36.06 102.008 35.885 102.118 35.645C102.238 35.405 102.298 35.095 102.298 34.715V34.22H103.333V41.39C103.333 41.88 103.443 42.265 103.663 42.545C103.883 42.825 104.213 42.965 104.653 42.965C105.103 42.965 105.433 42.83 105.643 42.56C105.853 42.28 105.958 41.89 105.958 41.39V39.89H106.978V41.375C106.978 42.245 106.763 42.93 106.333 43.43C105.913 43.92 105.263 44.165 104.383 44.165ZM103.333 37.205V36.275H107.203V37.205H103.333ZM108.488 44V43.205H109.808V37.07H108.608V36.275H111.353V43.205H112.523V44H108.488ZM110.498 35.24C110.188 35.24 109.933 35.15 109.733 34.97C109.543 34.79 109.448 34.555 109.448 34.265C109.448 33.975 109.543 33.745 109.733 33.575C109.933 33.405 110.188 33.32 110.498 33.32C110.808 33.32 111.058 33.405 111.248 33.575C111.438 33.735 111.533 33.965 111.533 34.265C111.533 34.555 111.438 34.79 111.248 34.97C111.058 35.15 110.808 35.24 110.498 35.24ZM118.145 44.135C117.595 44.135 117.09 44.05 116.63 43.88C116.18 43.7 115.8 43.42 115.49 43.04C115.18 42.66 114.975 42.16 114.875 41.54H115.22C115.42 41.97 115.665 42.31 115.955 42.56C116.245 42.8 116.55 42.97 116.87 43.07C117.2 43.17 117.525 43.22 117.845 43.22C118.345 43.22 118.735 43.115 119.015 42.905C119.295 42.695 119.435 42.405 119.435 42.035C119.435 41.775 119.36 41.57 119.21 41.42C119.07 41.26 118.88 41.135 118.64 41.045C118.41 40.955 118.15 40.885 117.86 40.835L116.78 40.655C116.25 40.555 115.78 40.415 115.37 40.235C114.97 40.055 114.655 39.81 114.425 39.5C114.205 39.18 114.095 38.775 114.095 38.285C114.095 37.575 114.335 37.04 114.815 36.68C115.295 36.31 115.915 36.125 116.675 36.125C117.195 36.125 117.675 36.21 118.115 36.38C118.555 36.55 118.925 36.82 119.225 37.19C119.525 37.55 119.715 38.03 119.795 38.63H119.45C119.28 38.22 119.05 37.9 118.76 37.67C118.48 37.43 118.18 37.265 117.86 37.175C117.55 37.075 117.255 37.025 116.975 37.025C116.525 37.025 116.165 37.125 115.895 37.325C115.625 37.515 115.49 37.785 115.49 38.135C115.49 38.385 115.55 38.585 115.67 38.735C115.79 38.885 115.965 39.005 116.195 39.095C116.435 39.175 116.72 39.245 117.05 39.305L118.115 39.5C118.595 39.58 119.04 39.71 119.45 39.89C119.87 40.06 120.21 40.305 120.47 40.625C120.73 40.935 120.86 41.345 120.86 41.855C120.86 42.595 120.61 43.16 120.11 43.55C119.62 43.94 118.965 44.135 118.145 44.135ZM114.2 44V41.54H114.875L115.205 42.065V44H114.2ZM119.795 38.63L119.48 38.12V36.26H120.485V38.63H119.795ZM126.648 44.165C125.738 44.165 125.068 43.89 124.638 43.34C124.208 42.78 124.013 42.015 124.053 41.045L124.173 37.205H122.043V36.335H122.733C123.193 36.335 123.553 36.28 123.813 36.17C124.083 36.06 124.273 35.885 124.383 35.645C124.503 35.405 124.563 35.095 124.563 34.715V34.22H125.598V41.39C125.598 41.88 125.708 42.265 125.928 42.545C126.148 42.825 126.478 42.965 126.918 42.965C127.368 42.965 127.698 42.83 127.908 42.56C128.118 42.28 128.223 41.89 128.223 41.39V39.89H129.243V41.375C129.243 42.245 129.028 42.93 128.598 43.43C128.178 43.92 127.528 44.165 126.648 44.165ZM125.598 37.205V36.275H129.468V37.205H125.598ZM130.754 44V43.205H132.074V37.07H130.874V36.275H133.439V38.855L133.619 38.825V43.205H135.389V44H130.754ZM133.094 39.305C133.104 38.545 133.234 37.93 133.484 37.46C133.744 36.98 134.089 36.63 134.519 36.41C134.959 36.18 135.454 36.065 136.004 36.065C136.594 36.055 137.069 36.195 137.429 36.485C137.799 36.775 137.984 37.175 137.984 37.685C137.984 38.005 137.889 38.265 137.699 38.465C137.519 38.665 137.279 38.765 136.979 38.765C136.719 38.765 136.509 38.69 136.349 38.54C136.189 38.39 136.109 38.205 136.109 37.985C136.109 37.705 136.204 37.495 136.394 37.355C136.594 37.215 136.879 37.155 137.249 37.175L137.114 37.715C137.094 37.425 136.964 37.2 136.724 37.04C136.494 36.88 136.184 36.805 135.794 36.815C135.394 36.815 135.029 36.91 134.699 37.1C134.369 37.28 134.104 37.555 133.904 37.925C133.714 38.295 133.619 38.755 133.619 39.305H133.094ZM140.884 46.295C141.154 46.295 141.379 46.24 141.559 46.13C141.749 46.02 141.909 45.865 142.039 45.665C142.169 45.475 142.294 45.255 142.414 45.005L143.209 43.28L143.344 43.055L145.894 37.07H144.439V36.275H147.814V37.07H147.034L143.824 44.45C143.594 44.98 143.354 45.44 143.104 45.83C142.854 46.23 142.549 46.54 142.189 46.76C141.839 46.98 141.394 47.09 140.854 47.09L140.884 46.295ZM143.104 44.885L139.699 37.07H138.934V36.275H142.819V37.07H141.379L143.854 43.07L143.104 44.885ZM139.939 44.975C140.169 44.975 140.364 45.025 140.524 45.125C140.684 45.235 140.764 45.4 140.764 45.62C140.764 45.87 140.669 46.045 140.479 46.145C140.299 46.245 140.094 46.295 139.864 46.295L139.879 45.875C139.959 46.005 140.084 46.105 140.254 46.175C140.424 46.255 140.634 46.295 140.884 46.295L140.854 47.09C140.314 47.09 139.864 46.96 139.504 46.7C139.154 46.45 138.979 46.14 138.979 45.77C138.979 45.52 139.069 45.325 139.249 45.185C139.429 45.045 139.659 44.975 139.939 44.975ZM163.867 40.61H164.752V42.095C164.752 42.735 164.607 43.225 164.317 43.565C164.027 43.895 163.587 44.06 162.997 44.06C162.637 44.06 162.317 44 162.037 43.88C161.757 43.76 161.502 43.605 161.272 43.415C161.052 43.215 160.832 43.01 160.612 42.8L156.667 38.885C156.387 38.615 156.122 38.34 155.872 38.06C155.622 37.78 155.417 37.47 155.257 37.13C155.097 36.79 155.017 36.4 155.017 35.96C155.017 35.47 155.142 35.05 155.392 34.7C155.642 34.34 155.987 34.065 156.427 33.875C156.877 33.675 157.402 33.575 158.002 33.575C158.862 33.575 159.532 33.78 160.012 34.19C160.502 34.59 160.747 35.115 160.747 35.765C160.747 36.265 160.617 36.675 160.357 36.995C160.097 37.315 159.747 37.57 159.307 37.76C158.877 37.95 158.402 38.12 157.882 38.27L157.387 38.405C157.117 38.475 156.832 38.57 156.532 38.69C156.232 38.8 155.952 38.95 155.692 39.14C155.432 39.32 155.217 39.545 155.047 39.815C154.887 40.085 154.807 40.41 154.807 40.79C154.807 41.27 154.932 41.685 155.182 42.035C155.432 42.375 155.782 42.64 156.232 42.83C156.682 43.01 157.197 43.1 157.777 43.1C159.177 43.1 160.247 42.705 160.987 41.915C161.727 41.125 162.147 39.99 162.247 38.51H161.047V37.73H164.467V38.51H163.252C163.192 39.34 163.032 40.1 162.772 40.79C162.512 41.48 162.147 42.08 161.677 42.59C161.207 43.09 160.627 43.48 159.937 43.76C159.257 44.03 158.462 44.165 157.552 44.165C156.712 44.165 155.972 44.04 155.332 43.79C154.702 43.54 154.207 43.175 153.847 42.695C153.497 42.215 153.322 41.64 153.322 40.97C153.322 40.45 153.427 40.005 153.637 39.635C153.857 39.265 154.142 38.955 154.492 38.705C154.842 38.455 155.217 38.255 155.617 38.105C156.027 37.945 156.427 37.82 156.817 37.73L157.177 37.64C157.637 37.53 158.037 37.4 158.377 37.25C158.727 37.09 158.997 36.89 159.187 36.65C159.377 36.4 159.472 36.1 159.472 35.75C159.472 35.34 159.337 35.015 159.067 34.775C158.807 34.525 158.447 34.4 157.987 34.4C157.517 34.4 157.127 34.53 156.817 34.79C156.517 35.05 156.367 35.4 156.367 35.84C156.367 36.25 156.487 36.62 156.727 36.95C156.967 37.27 157.247 37.59 157.567 37.91L161.872 42.185C162.062 42.365 162.252 42.53 162.442 42.68C162.642 42.82 162.862 42.89 163.102 42.89C163.352 42.89 163.542 42.815 163.672 42.665C163.802 42.515 163.867 42.28 163.867 41.96V40.61ZM170.565 44V43.205H171.99V34.565H170.595V33.77H173.595V43.205H175.395V44H170.565ZM173.595 34.685V33.77H179.955V34.685H173.595ZM173.595 39.215V38.3H177.06V39.215H173.595ZM178.995 35.975C178.995 35.505 178.91 35.175 178.74 34.985C178.57 34.785 178.265 34.685 177.825 34.685H179.955V37.295H178.995V35.975ZM175.005 38.3C175.415 38.3 175.705 38.21 175.875 38.03C176.045 37.84 176.13 37.525 176.13 37.085V36.305H177.06V38.3H175.005ZM176.13 40.445C176.13 39.995 176.045 39.68 175.875 39.5C175.705 39.31 175.415 39.215 175.005 39.215H177.06V41.42H176.13V40.445ZM182.696 38.87C182.426 38.87 182.181 38.795 181.961 38.645C181.751 38.485 181.646 38.235 181.646 37.895C181.646 37.505 181.801 37.18 182.111 36.92C182.431 36.66 182.846 36.465 183.356 36.335C183.866 36.195 184.406 36.125 184.976 36.125C185.896 36.125 186.611 36.31 187.121 36.68C187.631 37.05 187.881 37.61 187.871 38.36L186.416 38.135C186.416 37.745 186.266 37.445 185.966 37.235C185.676 37.025 185.241 36.92 184.661 36.92C184.311 36.92 183.976 36.96 183.656 37.04C183.336 37.12 183.071 37.25 182.861 37.43C182.661 37.6 182.551 37.83 182.531 38.12L182.516 37.4C182.836 37.41 183.091 37.475 183.281 37.595C183.471 37.715 183.561 37.9 183.551 38.15C183.541 38.37 183.461 38.545 183.311 38.675C183.161 38.805 182.956 38.87 182.696 38.87ZM188.561 44.15C187.921 44.15 187.431 43.975 187.091 43.625C186.751 43.265 186.581 42.76 186.581 42.11V41.63H186.416V39.425H186.326L186.416 38.75V38.135L187.871 38.36V42.23C187.871 42.5 187.936 42.725 188.066 42.905C188.206 43.075 188.411 43.16 188.681 43.16C188.941 43.16 189.136 43.075 189.266 42.905C189.406 42.725 189.476 42.5 189.476 42.23V40.04H190.496V42.125C190.496 42.765 190.331 43.265 190.001 43.625C189.671 43.975 189.191 44.15 188.561 44.15ZM183.686 44.15C182.926 44.15 182.301 43.97 181.811 43.61C181.331 43.24 181.091 42.73 181.091 42.08C181.091 41.61 181.191 41.23 181.391 40.94C181.601 40.64 181.886 40.405 182.246 40.235C182.606 40.055 183.021 39.92 183.491 39.83L184.766 39.56C185.076 39.5 185.356 39.415 185.606 39.305C185.856 39.195 186.051 39.045 186.191 38.855C186.341 38.665 186.416 38.425 186.416 38.135L186.461 39.425H186.416C186.316 39.645 186.141 39.825 185.891 39.965C185.651 40.105 185.346 40.215 184.976 40.295L184.316 40.43C184.016 40.5 183.741 40.59 183.491 40.7C183.241 40.8 183.041 40.935 182.891 41.105C182.741 41.275 182.666 41.505 182.666 41.795C182.666 42.195 182.811 42.5 183.101 42.71C183.391 42.92 183.781 43.025 184.271 43.025C184.651 43.025 185.001 42.945 185.321 42.785C185.651 42.625 185.916 42.365 186.116 42.005C186.316 41.635 186.416 41.15 186.416 40.55L186.851 40.58C186.851 41.44 186.711 42.135 186.431 42.665C186.151 43.185 185.771 43.565 185.291 43.805C184.811 44.035 184.276 44.15 183.686 44.15ZM195.714 44.18C194.944 44.18 194.259 44.025 193.659 43.715C193.059 43.405 192.589 42.95 192.249 42.35C191.909 41.74 191.739 41 191.739 40.13C191.739 39.26 191.914 38.53 192.264 37.94C192.614 37.34 193.099 36.885 193.719 36.575C194.339 36.265 195.044 36.11 195.834 36.11L196.029 36.965C195.479 36.965 194.994 37.085 194.574 37.325C194.164 37.565 193.844 37.905 193.614 38.345C193.394 38.785 193.284 39.315 193.284 39.935C193.284 40.545 193.394 41.08 193.614 41.54C193.844 41.99 194.159 42.34 194.559 42.59C194.969 42.84 195.449 42.965 195.999 42.965C196.359 42.965 196.674 42.91 196.944 42.8C197.224 42.69 197.454 42.55 197.634 42.38C197.824 42.2 197.969 42.01 198.069 41.81C198.169 41.61 198.229 41.42 198.249 41.24H199.209C199.199 41.59 199.119 41.94 198.969 42.29C198.819 42.64 198.599 42.96 198.309 43.25C198.019 43.53 197.654 43.755 197.214 43.925C196.784 44.095 196.284 44.18 195.714 44.18ZM198.069 39.29C197.789 39.29 197.564 39.22 197.394 39.08C197.234 38.93 197.154 38.745 197.154 38.525C197.154 38.265 197.259 38.07 197.469 37.94C197.679 37.81 197.944 37.74 198.264 37.73L198.219 38.315C198.129 38.085 197.994 37.87 197.814 37.67C197.644 37.46 197.414 37.29 197.124 37.16C196.834 37.03 196.469 36.965 196.029 36.965L195.834 36.11C196.534 36.11 197.124 36.215 197.604 36.425C198.094 36.625 198.469 36.89 198.729 37.22C198.989 37.54 199.119 37.885 199.119 38.255C199.119 38.575 199.019 38.83 198.819 39.02C198.629 39.2 198.379 39.29 198.069 39.29ZM200.627 44V43.205H201.947V37.07H200.747V36.275H203.492V43.205H204.662V44H200.627ZM202.637 35.24C202.327 35.24 202.072 35.15 201.872 34.97C201.682 34.79 201.587 34.555 201.587 34.265C201.587 33.975 201.682 33.745 201.872 33.575C202.072 33.405 202.327 33.32 202.637 33.32C202.947 33.32 203.197 33.405 203.387 33.575C203.577 33.735 203.672 33.965 203.672 34.265C203.672 34.555 203.577 34.79 203.387 34.97C203.197 35.15 202.947 35.24 202.637 35.24ZM207.598 38.87C207.328 38.87 207.083 38.795 206.863 38.645C206.653 38.485 206.548 38.235 206.548 37.895C206.548 37.505 206.703 37.18 207.013 36.92C207.333 36.66 207.748 36.465 208.258 36.335C208.768 36.195 209.308 36.125 209.878 36.125C210.798 36.125 211.513 36.31 212.023 36.68C212.533 37.05 212.783 37.61 212.773 38.36L211.318 38.135C211.318 37.745 211.168 37.445 210.868 37.235C210.578 37.025 210.143 36.92 209.563 36.92C209.213 36.92 208.878 36.96 208.558 37.04C208.238 37.12 207.973 37.25 207.763 37.43C207.563 37.6 207.453 37.83 207.433 38.12L207.418 37.4C207.738 37.41 207.993 37.475 208.183 37.595C208.373 37.715 208.463 37.9 208.453 38.15C208.443 38.37 208.363 38.545 208.213 38.675C208.063 38.805 207.858 38.87 207.598 38.87ZM213.463 44.15C212.823 44.15 212.333 43.975 211.993 43.625C211.653 43.265 211.483 42.76 211.483 42.11V41.63H211.318V39.425H211.228L211.318 38.75V38.135L212.773 38.36V42.23C212.773 42.5 212.838 42.725 212.968 42.905C213.108 43.075 213.313 43.16 213.583 43.16C213.843 43.16 214.038 43.075 214.168 42.905C214.308 42.725 214.378 42.5 214.378 42.23V40.04H215.398V42.125C215.398 42.765 215.233 43.265 214.903 43.625C214.573 43.975 214.093 44.15 213.463 44.15ZM208.588 44.15C207.828 44.15 207.203 43.97 206.713 43.61C206.233 43.24 205.993 42.73 205.993 42.08C205.993 41.61 206.093 41.23 206.293 40.94C206.503 40.64 206.788 40.405 207.148 40.235C207.508 40.055 207.923 39.92 208.393 39.83L209.668 39.56C209.978 39.5 210.258 39.415 210.508 39.305C210.758 39.195 210.953 39.045 211.093 38.855C211.243 38.665 211.318 38.425 211.318 38.135L211.363 39.425H211.318C211.218 39.645 211.043 39.825 210.793 39.965C210.553 40.105 210.248 40.215 209.878 40.295L209.218 40.43C208.918 40.5 208.643 40.59 208.393 40.7C208.143 40.8 207.943 40.935 207.793 41.105C207.643 41.275 207.568 41.505 207.568 41.795C207.568 42.195 207.713 42.5 208.003 42.71C208.293 42.92 208.683 43.025 209.173 43.025C209.553 43.025 209.903 42.945 210.223 42.785C210.553 42.625 210.818 42.365 211.018 42.005C211.218 41.635 211.318 41.15 211.318 40.55L211.753 40.58C211.753 41.44 211.613 42.135 211.333 42.665C211.053 43.185 210.673 43.565 210.193 43.805C209.713 44.035 209.178 44.15 208.588 44.15ZM216.239 44V43.205H217.529V33.995H216.359V33.2H219.074V43.205H220.244V44H216.239ZM225.273 44V43.205H226.338L230.388 33.725H231.843L235.908 43.205H236.973V44H232.413V43.205H234.183L230.568 34.7H231.123L227.508 43.205H229.263V44H225.273ZM228.258 40.805V39.875H233.463V40.805H228.258ZM241.62 44.18C240.84 44.18 240.16 44.025 239.58 43.715C239 43.405 238.545 42.95 238.215 42.35C237.895 41.74 237.735 41 237.735 40.13C237.735 39.26 237.895 38.525 238.215 37.925C238.545 37.325 238.995 36.87 239.565 36.56C240.145 36.24 240.815 36.08 241.575 36.08L241.62 36.965C241.13 36.965 240.705 37.08 240.345 37.31C239.995 37.54 239.725 37.885 239.535 38.345C239.345 38.795 239.25 39.36 239.25 40.04C239.25 40.95 239.48 41.675 239.94 42.215C240.41 42.745 241.045 43.01 241.845 43.01C242.335 43.01 242.735 42.93 243.045 42.77C243.355 42.61 243.595 42.415 243.765 42.185C243.945 41.945 244.075 41.71 244.155 41.48H245.175C245.135 41.79 245.035 42.105 244.875 42.425C244.715 42.745 244.49 43.04 244.2 43.31C243.92 43.57 243.565 43.78 243.135 43.94C242.715 44.1 242.21 44.18 241.62 44.18ZM238.455 40.1V39.26H243.78L245.295 39.665V40.1H238.455ZM243.78 39.26C243.77 38.84 243.68 38.455 243.51 38.105C243.35 37.755 243.11 37.48 242.79 37.28C242.48 37.07 242.09 36.965 241.62 36.965L241.575 36.08C242.385 36.08 243.065 36.23 243.615 36.53C244.175 36.83 244.595 37.25 244.875 37.79C245.155 38.33 245.295 38.955 245.295 39.665L243.78 39.26ZM251.284 44.135C250.734 44.135 250.229 44.05 249.769 43.88C249.319 43.7 248.939 43.42 248.629 43.04C248.319 42.66 248.114 42.16 248.014 41.54H248.359C248.559 41.97 248.804 42.31 249.094 42.56C249.384 42.8 249.689 42.97 250.009 43.07C250.339 43.17 250.664 43.22 250.984 43.22C251.484 43.22 251.874 43.115 252.154 42.905C252.434 42.695 252.574 42.405 252.574 42.035C252.574 41.775 252.499 41.57 252.349 41.42C252.209 41.26 252.019 41.135 251.779 41.045C251.549 40.955 251.289 40.885 250.999 40.835L249.919 40.655C249.389 40.555 248.919 40.415 248.509 40.235C248.109 40.055 247.794 39.81 247.564 39.5C247.344 39.18 247.234 38.775 247.234 38.285C247.234 37.575 247.474 37.04 247.954 36.68C248.434 36.31 249.054 36.125 249.814 36.125C250.334 36.125 250.814 36.21 251.254 36.38C251.694 36.55 252.064 36.82 252.364 37.19C252.664 37.55 252.854 38.03 252.934 38.63H252.589C252.419 38.22 252.189 37.9 251.899 37.67C251.619 37.43 251.319 37.265 250.999 37.175C250.689 37.075 250.394 37.025 250.114 37.025C249.664 37.025 249.304 37.125 249.034 37.325C248.764 37.515 248.629 37.785 248.629 38.135C248.629 38.385 248.689 38.585 248.809 38.735C248.929 38.885 249.104 39.005 249.334 39.095C249.574 39.175 249.859 39.245 250.189 39.305L251.254 39.5C251.734 39.58 252.179 39.71 252.589 39.89C253.009 40.06 253.349 40.305 253.609 40.625C253.869 40.935 253.999 41.345 253.999 41.855C253.999 42.595 253.749 43.16 253.249 43.55C252.759 43.94 252.104 44.135 251.284 44.135ZM247.339 44V41.54H248.014L248.344 42.065V44H247.339ZM252.934 38.63L252.619 38.12V36.26H253.624V38.63H252.934ZM259.788 44.165C258.878 44.165 258.208 43.89 257.778 43.34C257.348 42.78 257.153 42.015 257.193 41.045L257.313 37.205H255.183V36.335H255.873C256.333 36.335 256.693 36.28 256.953 36.17C257.223 36.06 257.413 35.885 257.523 35.645C257.643 35.405 257.703 35.095 257.703 34.715V34.22H258.738V41.39C258.738 41.88 258.848 42.265 259.068 42.545C259.288 42.825 259.618 42.965 260.058 42.965C260.508 42.965 260.838 42.83 261.048 42.56C261.258 42.28 261.363 41.89 261.363 41.39V39.89H262.383V41.375C262.383 42.245 262.168 42.93 261.738 43.43C261.318 43.92 260.668 44.165 259.788 44.165ZM258.738 37.205V36.275H262.608V37.205H258.738ZM263.73 44V43.205H265.02V33.995H263.85V33.2H266.565V43.205H267.675V44H263.73ZM269.25 44V43.205H270.36V38.84C270.36 38.29 270.21 37.89 269.91 37.64C269.61 37.38 269.205 37.25 268.695 37.25C268.325 37.25 267.975 37.335 267.645 37.505C267.325 37.675 267.065 37.94 266.865 38.3C266.665 38.66 266.565 39.135 266.565 39.725L266.295 39.74C266.295 38.93 266.405 38.26 266.625 37.73C266.855 37.2 267.19 36.81 267.63 36.56C268.08 36.3 268.635 36.17 269.295 36.17C270.065 36.17 270.69 36.375 271.17 36.785C271.65 37.185 271.89 37.855 271.89 38.795V43.205H273.015V44H269.25ZM278.094 44.18C277.314 44.18 276.634 44.025 276.054 43.715C275.474 43.405 275.019 42.95 274.689 42.35C274.369 41.74 274.209 41 274.209 40.13C274.209 39.26 274.369 38.525 274.689 37.925C275.019 37.325 275.469 36.87 276.039 36.56C276.619 36.24 277.289 36.08 278.049 36.08L278.094 36.965C277.604 36.965 277.179 37.08 276.819 37.31C276.469 37.54 276.199 37.885 276.009 38.345C275.819 38.795 275.724 39.36 275.724 40.04C275.724 40.95 275.954 41.675 276.414 42.215C276.884 42.745 277.519 43.01 278.319 43.01C278.809 43.01 279.209 42.93 279.519 42.77C279.829 42.61 280.069 42.415 280.239 42.185C280.419 41.945 280.549 41.71 280.629 41.48H281.649C281.609 41.79 281.509 42.105 281.349 42.425C281.189 42.745 280.964 43.04 280.674 43.31C280.394 43.57 280.039 43.78 279.609 43.94C279.189 44.1 278.684 44.18 278.094 44.18ZM274.929 40.1V39.26H280.254L281.769 39.665V40.1H274.929ZM280.254 39.26C280.244 38.84 280.154 38.455 279.984 38.105C279.824 37.755 279.584 37.48 279.264 37.28C278.954 37.07 278.564 36.965 278.094 36.965L278.049 36.08C278.859 36.08 279.539 36.23 280.089 36.53C280.649 36.83 281.069 37.25 281.349 37.79C281.629 38.33 281.769 38.955 281.769 39.665L280.254 39.26ZM287.312 44.165C286.402 44.165 285.732 43.89 285.302 43.34C284.872 42.78 284.677 42.015 284.717 41.045L284.837 37.205H282.707V36.335H283.397C283.857 36.335 284.217 36.28 284.477 36.17C284.747 36.06 284.937 35.885 285.047 35.645C285.167 35.405 285.227 35.095 285.227 34.715V34.22H286.262V41.39C286.262 41.88 286.372 42.265 286.592 42.545C286.812 42.825 287.142 42.965 287.582 42.965C288.032 42.965 288.362 42.83 288.572 42.56C288.782 42.28 288.887 41.89 288.887 41.39V39.89H289.907V41.375C289.907 42.245 289.692 42.93 289.262 43.43C288.842 43.92 288.192 44.165 287.312 44.165ZM286.262 37.205V36.275H290.132V37.205H286.262ZM291.418 44V43.205H292.738V37.07H291.538V36.275H294.283V43.205H295.453V44H291.418ZM293.428 35.24C293.118 35.24 292.863 35.15 292.663 34.97C292.473 34.79 292.378 34.555 292.378 34.265C292.378 33.975 292.473 33.745 292.663 33.575C292.863 33.405 293.118 33.32 293.428 33.32C293.738 33.32 293.988 33.405 294.178 33.575C294.368 33.735 294.463 33.965 294.463 34.265C294.463 34.555 294.368 34.79 294.178 34.97C293.988 35.15 293.738 35.24 293.428 35.24ZM300.67 44.18C299.9 44.18 299.215 44.025 298.615 43.715C298.015 43.405 297.545 42.95 297.205 42.35C296.865 41.74 296.695 41 296.695 40.13C296.695 39.26 296.87 38.53 297.22 37.94C297.57 37.34 298.055 36.885 298.675 36.575C299.295 36.265 300 36.11 300.79 36.11L300.985 36.965C300.435 36.965 299.95 37.085 299.53 37.325C299.12 37.565 298.8 37.905 298.57 38.345C298.35 38.785 298.24 39.315 298.24 39.935C298.24 40.545 298.35 41.08 298.57 41.54C298.8 41.99 299.115 42.34 299.515 42.59C299.925 42.84 300.405 42.965 300.955 42.965C301.315 42.965 301.63 42.91 301.9 42.8C302.18 42.69 302.41 42.55 302.59 42.38C302.78 42.2 302.925 42.01 303.025 41.81C303.125 41.61 303.185 41.42 303.205 41.24H304.165C304.155 41.59 304.075 41.94 303.925 42.29C303.775 42.64 303.555 42.96 303.265 43.25C302.975 43.53 302.61 43.755 302.17 43.925C301.74 44.095 301.24 44.18 300.67 44.18ZM303.025 39.29C302.745 39.29 302.52 39.22 302.35 39.08C302.19 38.93 302.11 38.745 302.11 38.525C302.11 38.265 302.215 38.07 302.425 37.94C302.635 37.81 302.9 37.74 303.22 37.73L303.175 38.315C303.085 38.085 302.95 37.87 302.77 37.67C302.6 37.46 302.37 37.29 302.08 37.16C301.79 37.03 301.425 36.965 300.985 36.965L300.79 36.11C301.49 36.11 302.08 36.215 302.56 36.425C303.05 36.625 303.425 36.89 303.685 37.22C303.945 37.54 304.075 37.885 304.075 38.255C304.075 38.575 303.975 38.83 303.775 39.02C303.585 39.2 303.335 39.29 303.025 39.29ZM310.083 44.135C309.533 44.135 309.028 44.05 308.568 43.88C308.118 43.7 307.738 43.42 307.428 43.04C307.118 42.66 306.913 42.16 306.813 41.54H307.158C307.358 41.97 307.603 42.31 307.893 42.56C308.183 42.8 308.488 42.97 308.808 43.07C309.138 43.17 309.463 43.22 309.783 43.22C310.283 43.22 310.673 43.115 310.953 42.905C311.233 42.695 311.373 42.405 311.373 42.035C311.373 41.775 311.298 41.57 311.148 41.42C311.008 41.26 310.818 41.135 310.578 41.045C310.348 40.955 310.088 40.885 309.798 40.835L308.718 40.655C308.188 40.555 307.718 40.415 307.308 40.235C306.908 40.055 306.593 39.81 306.363 39.5C306.143 39.18 306.033 38.775 306.033 38.285C306.033 37.575 306.273 37.04 306.753 36.68C307.233 36.31 307.853 36.125 308.613 36.125C309.133 36.125 309.613 36.21 310.053 36.38C310.493 36.55 310.863 36.82 311.163 37.19C311.463 37.55 311.653 38.03 311.733 38.63H311.388C311.218 38.22 310.988 37.9 310.698 37.67C310.418 37.43 310.118 37.265 309.798 37.175C309.488 37.075 309.193 37.025 308.913 37.025C308.463 37.025 308.103 37.125 307.833 37.325C307.563 37.515 307.428 37.785 307.428 38.135C307.428 38.385 307.488 38.585 307.608 38.735C307.728 38.885 307.903 39.005 308.133 39.095C308.373 39.175 308.658 39.245 308.988 39.305L310.053 39.5C310.533 39.58 310.978 39.71 311.388 39.89C311.808 40.06 312.148 40.305 312.408 40.625C312.668 40.935 312.798 41.345 312.798 41.855C312.798 42.595 312.548 43.16 312.048 43.55C311.558 43.94 310.903 44.135 310.083 44.135ZM306.138 44V41.54H306.813L307.143 42.065V44H306.138ZM311.733 38.63L311.418 38.12V36.26H312.423V38.63H311.733Z" fill="#1E1E1E"/>
<defs>
<clipPath id="clip0_18_16">
<rect width="58" height="70" fill="white"/>
</clipPath>
</defs>
</svg>
