<svg width="32" height="32" viewBox="0 0 32 32" fill="none" xmlns="http://www.w3.org/2000/svg">
<g clip-path="url(#clip0_12_106)">
<path fill-rule="evenodd" clip-rule="evenodd" d="M28.9991 16C28.9991 19.4478 27.6295 22.7544 25.1915 25.1924C22.7535 27.6304 19.4469 29 15.9991 29C12.5513 29 9.2447 27.6304 6.80673 25.1924C4.36875 22.7544 2.99911 19.4478 2.99911 16C2.99911 12.5522 4.36875 9.24558 6.80673 6.80761C9.2447 4.36964 12.5513 3 15.9991 3C19.4469 3 22.7535 4.36964 25.1915 6.80761C27.6295 9.24558 28.9991 12.5522 28.9991 16ZM31.9991 16C31.9991 20.2435 30.3134 24.3131 27.3128 27.3137C24.3122 30.3143 20.2426 32 15.9991 32C11.7557 32 7.68599 30.3143 4.68541 27.3137C1.68482 24.3131 -0.00088501 20.2435 -0.00088501 16C-0.00088501 11.7565 1.68482 7.68687 4.68541 4.68629C7.68599 1.68571 11.7557 0 15.9991 0C20.2426 0 24.3122 1.68571 27.3128 4.68629C30.3134 7.68687 31.9991 11.7565 31.9991 16ZM10.5031 9.4C11.192 9.00363 12.0101 8.89684 12.7777 9.10308C13.5453 9.30931 14.1996 9.81173 14.5971 10.5C14.7276 10.7296 14.7621 11.0014 14.6929 11.2563C14.6237 11.5111 14.4565 11.7282 14.2278 11.8603C13.9991 11.9923 13.7275 12.0285 13.4722 11.961C13.2169 11.8935 12.9987 11.7278 12.8651 11.5C12.7774 11.3484 12.6514 11.2224 12.4997 11.1348C12.3479 11.0472 12.1759 11.001 12.0007 11.0008C11.8255 11.0006 11.6533 11.0464 11.5014 11.1337C11.3495 11.2209 11.2232 11.3466 11.1351 11.498C11.002 11.7274 10.7832 11.8945 10.5268 11.9626C10.2704 12.0307 9.99753 11.9941 9.76812 11.861C9.5387 11.7279 9.37158 11.509 9.3035 11.2527C9.23542 10.9963 9.27198 10.7234 9.40512 10.494C9.66952 10.0392 10.0469 9.66191 10.5031 9.4ZM15.9991 24C18.1208 24 20.1557 23.1571 21.656 21.6569C23.1563 20.1566 23.9991 18.1217 23.9991 16H7.99911C7.99911 18.1217 8.84197 20.1566 10.3423 21.6569C11.8426 23.1571 13.8774 24 15.9991 24ZM18.5031 9.4C19.192 9.00363 20.0101 8.89684 20.7777 9.10308C21.5453 9.30931 22.1996 9.81173 22.5971 10.5C22.6638 10.6138 22.7073 10.7396 22.7252 10.8703C22.7431 11.0009 22.7349 11.1338 22.7012 11.2613C22.6675 11.3888 22.6089 11.5084 22.5288 11.6132C22.4487 11.7179 22.3487 11.8058 22.2344 11.8718C22.1202 11.9377 21.9941 11.9804 21.8633 11.9974C21.7325 12.0144 21.5997 12.0054 21.4724 11.9708C21.3451 11.9363 21.226 11.8769 21.1217 11.7961C21.0175 11.7153 20.9303 11.6146 20.8651 11.5C20.7774 11.3484 20.6514 11.2224 20.4997 11.1348C20.3479 11.0472 20.1759 11.001 20.0007 11.0008C19.8255 11.0006 19.6533 11.0464 19.5014 11.1337C19.3495 11.2209 19.2232 11.3466 19.1351 11.498C19.002 11.7274 18.7832 11.8945 18.5268 11.9626C18.2704 12.0307 17.9975 11.9941 17.7681 11.861C17.5387 11.7279 17.3716 11.509 17.3035 11.2527C17.2354 10.9963 17.272 10.7234 17.4051 10.494C17.6695 10.0392 18.0489 9.66191 18.5051 9.4H18.5031Z" fill="#1E1E1E"/>
</g>
<defs>
<clipPath id="clip0_12_106">
<rect width="32" height="32" fill="white" transform="translate(-0.00088501)"/>
</clipPath>
</defs>
</svg>
