<svg width="27" height="28" viewBox="0 0 27 28" fill="none" xmlns="http://www.w3.org/2000/svg">
<path d="M22.6667 3.33335H20V2.00002C20 1.6464 19.8595 1.30726 19.6095 1.05721C19.3594 0.807163 19.0203 0.666687 18.6667 0.666687C18.313 0.666687 17.9739 0.807163 17.7239 1.05721C17.4738 1.30726 17.3333 1.6464 17.3333 2.00002V3.33335H9.33333V2.00002C9.33333 1.6464 9.19286 1.30726 8.94281 1.05721C8.69276 0.807163 8.35362 0.666687 8 0.666687C7.64638 0.666687 7.30724 0.807163 7.05719 1.05721C6.80714 1.30726 6.66667 1.6464 6.66667 2.00002V3.33335H4C2.93913 3.33335 1.92172 3.75478 1.17157 4.50493C0.421427 5.25507 0 6.27249 0 7.33335V23.3334C0 24.3942 0.421427 25.4116 1.17157 26.1618C1.92172 26.9119 2.93913 27.3334 4 27.3334H22.6667C23.7275 27.3334 24.7449 26.9119 25.4951 26.1618C26.2452 25.4116 26.6667 24.3942 26.6667 23.3334V7.33335C26.6667 6.27249 26.2452 5.25507 25.4951 4.50493C24.7449 3.75478 23.7275 3.33335 22.6667 3.33335ZM24 23.3334C24 23.687 23.8595 24.0261 23.6095 24.2762C23.3594 24.5262 23.0203 24.6667 22.6667 24.6667H4C3.64638 24.6667 3.30724 24.5262 3.05719 24.2762C2.80714 24.0261 2.66667 23.687 2.66667 23.3334V14H24V23.3334ZM24 11.3334H2.66667V7.33335C2.66667 6.97973 2.80714 6.64059 3.05719 6.39054C3.30724 6.1405 3.64638 6.00002 4 6.00002H6.66667V7.33335C6.66667 7.68698 6.80714 8.02611 7.05719 8.27616C7.30724 8.52621 7.64638 8.66669 8 8.66669C8.35362 8.66669 8.69276 8.52621 8.94281 8.27616C9.19286 8.02611 9.33333 7.68698 9.33333 7.33335V6.00002H17.3333V7.33335C17.3333 7.68698 17.4738 8.02611 17.7239 8.27616C17.9739 8.52621 18.313 8.66669 18.6667 8.66669C19.0203 8.66669 19.3594 8.52621 19.6095 8.27616C19.8595 8.02611 20 7.68698 20 7.33335V6.00002H22.6667C23.0203 6.00002 23.3594 6.1405 23.6095 6.39054C23.8595 6.64059 24 6.97973 24 7.33335V11.3334Z" fill="#1E1E1E"/>
</svg>
