<svg width="29" height="26" viewBox="0 0 29 26" fill="none" xmlns="http://www.w3.org/2000/svg">
<path d="M3.05176e-05 3.24927C3.05176e-05 2.38731 0.34244 1.56066 0.951933 0.95117C1.56143 0.341677 2.38808 -0.000732422 3.25003 -0.000732422H24.75C25.612 -0.000732422 26.4386 0.341677 27.0481 0.95117C27.6576 1.56066 28 2.38731 28 3.24927V10.1223L27.866 10.0583L27.351 9.82027C26.9266 9.62446 26.4672 9.51565 26 9.50027V3.24927C26 2.55927 25.44 1.99927 24.75 1.99927H3.25003C2.56003 1.99927 2.00003 2.55927 2.00003 3.24927V20.7493C2.00003 21.4393 2.56003 21.9993 3.25003 21.9993H6.00003V18.4993C6.00003 17.8362 6.26342 17.2003 6.73226 16.7315C7.2011 16.2627 7.83699 15.9993 8.50003 15.9993H19.5C19.8283 15.9993 20.1534 16.0639 20.4567 16.1896C20.7601 16.3152 21.0357 16.4994 21.2678 16.7315C21.4999 16.9636 21.6841 17.2392 21.8097 17.5426C21.9354 17.8459 22 18.171 22 18.4993V19.2473L21.293 19.0623C20.7489 18.92 20.1755 18.9347 19.6394 19.1046C19.1032 19.2745 18.626 19.5926 18.263 20.0223L17.327 21.1313C16.9954 21.5232 16.7541 21.9833 16.6201 22.479C16.4862 22.9746 16.4629 23.4936 16.552 23.9993H3.25003C2.82323 23.9993 2.40062 23.9152 2.00631 23.7519C1.612 23.5885 1.25372 23.3492 0.951933 23.0474C0.650143 22.7456 0.41075 22.3873 0.247422 21.993C0.0840942 21.5987 3.05176e-05 21.1761 3.05176e-05 20.7493V3.24927ZM14 13.9993C15.3261 13.9993 16.5979 13.4725 17.5356 12.5348C18.4732 11.5971 19 10.3253 19 8.99927C19 7.67319 18.4732 6.40142 17.5356 5.46373C16.5979 4.52605 15.3261 3.99927 14 3.99927C12.6739 3.99927 11.4022 4.52605 10.4645 5.46373C9.52681 6.40142 9.00003 7.67319 9.00003 8.99927C9.00003 10.3253 9.52681 11.5971 10.4645 12.5348C11.4022 13.4725 12.6739 13.9993 14 13.9993ZM23.55 13.7123L24.029 12.3343C24.1181 12.0728 24.2612 11.833 24.449 11.6305C24.6367 11.4279 24.865 11.2671 25.1189 11.1584C25.3729 11.0498 25.6468 10.9958 25.923 10.9999C26.1992 11.004 26.4714 11.0661 26.722 11.1823L27.237 11.4203C28.077 11.8073 28.781 12.5013 28.917 13.4233C29.589 17.9383 26.036 24.1833 21.847 25.8503C20.992 26.1903 20.047 25.9203 19.297 25.3753L18.837 25.0413C18.6123 24.8777 18.4236 24.6698 18.2825 24.4303C18.1415 24.1909 18.0511 23.925 18.017 23.6492C17.9828 23.3734 18.0057 23.0935 18.0842 22.8269C18.1626 22.5603 18.295 22.3126 18.473 22.0993L19.41 20.9893C19.778 20.5533 20.36 20.3693 20.913 20.5133L22.934 21.0433C24.462 20.0446 25.27 18.6246 25.358 16.7833L23.895 15.2713C23.6994 15.0683 23.5636 14.8152 23.5027 14.5399C23.4419 14.2646 23.4582 13.9788 23.55 13.7123Z" fill="#1E1E1E"/>
</svg>
